<svg width="495.41" height="140.52" preserveAspectRatio="xMidYMid" version="1.0" viewBox="0 0 371.56 105.39" xmlns="http://www.w3.org/2000/svg" zoomAndPan="magnify">
 <defs>
  <clipPath id="c67d5fafb3">
   <path d="m0.77734 41.789h21.934v21.137h-21.934z"/>
  </clipPath>
  <clipPath id="f6a91cfcd9">
   <path d="m71.543 87.332h17.367v18.082h-17.367z"/>
  </clipPath>
  <clipPath id="3eb18ec0ab">
   <path d="m35.297 87.332h17.617v18.082h-17.617z"/>
  </clipPath>
  <clipPath id="6b5c899c95">
   <path d="m13 28h106.55v68h-106.55z"/>
  </clipPath>
  <clipPath id="aa184baea6">
   <path d="m13 59h106.55v37h-106.55z"/>
  </clipPath>
  <clipPath id="bbfc7a7318">
   <path d="m115 55h4.5508v17h-4.5508z"/>
  </clipPath>
 </defs>
 <g transform="translate(-.77734 -.023438)" clip-path="url(#c67d5fafb3)">
  <path d="m20.633 62.309c-0.59766-1.1016-1.25-2.1719-1.9766-3.1914-0.20703-0.29297-0.41797-0.57813-0.63672-0.85938 0.05469 0.07031 0.10547 0.13672 0.16016 0.20703-0.83984-1.0859-1.7695-2.1055-2.7969-3.0156-0.28906-0.25391-0.58594-0.5-0.89062-0.73828 0.06641 0.05469 0.13672 0.10937 0.20312 0.16016-0.81641-0.62891-1.6875-1.1875-2.6133-1.6484-0.26172-0.12891-0.53125-0.25391-0.80078-0.36719 0.07813 0.03516 0.16016 0.06641 0.24219 0.10156-0.92969-0.39062-1.9023-0.67969-2.9023-0.82031 0.089844 0.01563 0.17969 0.02734 0.26953 0.03906-0.73438-0.10156-1.4805-0.11719-2.2188-0.01953 0.089844-0.01172 0.17969-0.02344 0.26953-0.03516-0.56641 0.07813-1.1211 0.21875-1.6484 0.4375 0.082031-0.03125 0.16016-0.06641 0.24219-0.10156-0.4375 0.1875-0.84766 0.42969-1.2266 0.71875 0.070312-0.05469 0.13672-0.10547 0.20703-0.16016-0.37891 0.29297-0.71875 0.62891-1.0078 1.0078 0.050782-0.07031 0.10547-0.14063 0.15625-0.20703-0.26172 0.34375-0.48437 0.71094-0.65234 1.1094 0.03125-0.08203 0.066406-0.16016 0.10156-0.24219-0.15234 0.35938-0.25781 0.73047-0.30859 1.1172 0.011718-0.08984 0.023437-0.17969 0.035156-0.26953-0.042969 0.33984-0.046875 0.68359-0.00391 1.0273-0.011715-0.093745-0.023434-0.18359-0.035153-0.26953 0.042969 0.30469 0.12109 0.60156 0.23828 0.88672-0.035156-0.078125-0.066406-0.16016-0.10156-0.24219 0.10547 0.24609 0.23438 0.48047 0.39453 0.69141-0.050781-0.066406-0.10156-0.13672-0.15625-0.20312 0.13672 0.17578 0.29688 0.33594 0.47266 0.47656-0.066407-0.054688-0.13672-0.10547-0.20313-0.16016 0.16016 0.125 0.33594 0.22656 0.52344 0.30469-0.082031-0.03125-0.16406-0.06641-0.24219-0.10156 0.19922 0.08203 0.41016 0.14062 0.625 0.17188-0.089843-0.01172-0.17969-0.02344-0.26953-0.03516 0.26953 0.03516 0.54297 0.03125 0.8125-0.0039-0.089843 0.01172-0.17969 0.02344-0.26953 0.03516 0.29297-0.04297 0.57812-0.12109 0.85547-0.23438-0.082031 0.03516-0.16406 0.07031-0.24219 0.10156 0.30078-0.12891 0.57812-0.29687 0.83984-0.49609-0.070313 0.05078-0.13672 0.10547-0.20703 0.15625 0.34375-0.26562 0.64062-0.58203 0.90625-0.92578-0.050782 0.070306-0.10547 0.13671-0.16016 0.20702 0.42969-0.55859 0.77344-1.1836 1.0469-1.8281-0.035156 0.078125-0.070312 0.16016-0.10156 0.24219 0.34375-0.81641 0.57031-1.6758 0.6875-2.5508-0.011719 0.089844-0.023438 0.17969-0.035156 0.26953 0.125-0.96094 0.12109-1.9336-0.007813-2.8906 0.011719 0.089844 0.023438 0.17969 0.039063 0.26953-0.13672-0.98828-0.39844-1.9531-0.78516-2.875 0.035156 0.082031 0.070312 0.16406 0.10156 0.24219-0.35938-0.84766-0.82031-1.6484-1.3828-2.3789 0.054687 0.066406 0.10547 0.13672 0.16016 0.20312-0.50391-0.64844-1.0859-1.2383-1.7344-1.7422 0.070312 0.054688 0.13672 0.10938 0.20703 0.16016-0.085938-0.066406-0.17578-0.12891-0.26172-0.19141-0.21875-0.16016-0.39062-0.33594-0.46484-0.60547-0.066407-0.24609-0.039063-0.56641 0.10156-0.78125 0.14062-0.21875 0.34766-0.41016 0.60547-0.46875 0.25-0.05469 0.5625-0.05469 0.78125 0.10156 0.6875 0.5 1.3242 1.0547 1.8789 1.7031 0.54297 0.63281 1.0273 1.3203 1.4219 2.0586 0.80469 1.5 1.2734 3.1445 1.418 4.8398 0.06641 0.76563 0.05469 1.5391-0.04297 2.3008-0.10547 0.83984-0.27344 1.6562-0.56641 2.4492-0.3125 0.84766-0.70703 1.6797-1.2461 2.4062-0.3125 0.42188-0.64844 0.82813-1.0586 1.1602-0.23828 0.19531-0.48438 0.38281-0.75 0.53516-0.25781 0.14844-0.53906 0.26562-0.8164 0.36328-1.0469 0.36328-2.3242 0.29688-3.2617-0.32422-0.47656-0.32031-0.87109-0.73438-1.1641-1.2305-0.14844-0.24609-0.26562-0.51953-0.36328-0.79297-0.070313-0.19922-0.125-0.41016-0.16016-0.61719-0.046875-0.28125-0.082031-0.56641-0.085937-0.85156-0.003906-0.28906 0.03125-0.57422 0.074218-0.85938 0.070313-0.47656 0.22656-0.91797 0.41797-1.3594 0.16406-0.37891 0.37891-0.73047 0.625-1.0586 0.30078-0.39844 0.62109-0.76562 1.0039-1.0859 0.375-0.31641 0.77344-0.60547 1.207-0.83203 0.46875-0.24219 0.97266-0.44141 1.4805-0.57031 1.0391-0.27344 2.1367-0.32812 3.1992-0.19531 1.0625 0.13281 2.0859 0.38672 3.0781 0.78906 0.88281 0.35547 1.7344 0.77344 2.5391 1.2773 1.5312 0.96094 2.9141 2.168 4.1172 3.5117 1.2266 1.3711 2.3008 2.8789 3.2344 4.4609 0.21484 0.36719 0.42578 0.73828 0.62891 1.1133 0.12891 0.23438 0.17578 0.51953 0.10156 0.78125-0.0625 0.23438-0.24609 0.48828-0.46484 0.60547-0.23438 0.125-0.51953 0.1875-0.78125 0.10156-0.24609-0.08203-0.48047-0.23047-0.60547-0.46484" fill="#f79c9c"/>
 </g>
 <g transform="translate(-.77734 -.023438)" clip-path="url(#f6a91cfcd9)">
  <path d="m77.703 105.33c0.98828 0.0937 1.9961 0.0937 2.9922 0.0742 2.7461-0.043 5.9336-0.39453 7.3477-2.3086 0.78906-1.0625 0.82031-2.375 0.82422-3.6172 0.01172-1.875 0.02344-3.7539 0.03125-5.6289 0.02734-4.9883-3.5859-6.3789-9.2734-6.2891-2.0195 0.03516-4.2031 0.11328-5.7695 1.1523-2.1172 1.4102-2.25 3.957-2.207 6.1836 0.03125 1.6055 0.0625 3.207 0.09375 4.8086 0.01953 1.043 0.05078 2.1211 0.61328 3.0547 0.69531 1.1562 2.1289 1.9258 3.6406 2.2969 0.55859 0.13281 1.1289 0.21875 1.707 0.27344" fill="#f49090"/>
 </g>
 <g transform="translate(-.77734 -.023438)" clip-path="url(#3eb18ec0ab)">
  <path d="m41.508 105.33c0.99219 0.0937 2 0.0937 2.9961 0.0742 2.7461-0.043 5.9336-0.39453 7.3477-2.3086 0.78906-1.0625 0.81641-2.375 0.82422-3.6172 0.01172-1.875 0.01953-3.7539 0.03125-5.6289 0.02734-4.9883-3.5859-6.3789-9.2734-6.2891-2.0195 0.03516-4.207 0.11328-5.7695 1.1523-2.1172 1.4102-2.25 3.957-2.207 6.1836 0.03125 1.6055 0.0625 3.207 0.09375 4.8086 0.01953 1.043 0.05078 2.1211 0.61328 3.0547 0.69531 1.1562 2.125 1.9258 3.6406 2.2969 0.55859 0.13281 1.1289 0.21875 1.7031 0.27344" fill="#f49090"/>
 </g>
 <path d="m90.453 35.629c-0.01563 1.2422-0.03906 2.5312-0.55859 3.6641-0.68359 1.4961-2.1602 2.5117-3.7266 3.0156-1.5664 0.50781-3.2344 0.57031-4.8789 0.63281-1.5156 0.05469-3.1172 0.09375-4.4453-0.64062-1.4961-0.83203-2.3516-2.5078-2.6875-4.1836-0.80078-4.0156 0.98047-8.2148 3.7891-11.195 2.0391-2.1641 10.457-9.0625 13.145-6.0508 1.4492 1.625-0.01563 3.7734-0.30469 5.4258-0.53125 3.0352-0.29688 6.25-0.33203 9.332" fill="#f49090"/>
 <path d="m97.691 37.234c-0.3125 1.2031-0.64453 2.4492-1.418 3.4258-1.0234 1.2891-2.6992 1.9219-4.3398 2.0391-1.6406 0.11719-3.2773-0.21875-4.8867-0.55078-1.4883-0.30859-3.0508-0.65625-4.1641-1.6836-1.2578-1.1641-1.6875-2.9961-1.6133-4.7031 0.18359-4.0898 2.918-7.7422 6.3555-9.9688 2.4961-1.6133 12.32-6.3047 14.207-2.7383 1.0234 1.9258-0.91407 3.6602-1.5898 5.1953-1.2383 2.8203-1.7813 6-2.5508 8.9844" fill="#f79c9c"/>
 <g transform="translate(-.77734 -.023438)" clip-path="url(#6b5c899c95)">
  <path d="m29.566 89.738c10.062 6.0156 22.453 6.1523 34.18 6.0742 7.4414-0.05469 14.965-0.12891 22.188-1.9219 7.2188-1.793 14.219-5.4922 18.578-11.523 0.0937-0.12891 0.1875-0.26172 0.28125-0.39063 1.9688-2.8281 3.5938-6.1367 6.6602-7.6641 1.8711-0.92969 4.1641-1.1133 5.707-2.5078 0.0273-0.02734 0.0547-0.05469 0.0859-0.08203 1.6016-1.5195 1.8438-3.9453 1.9883-6.1445 0.19531-2.9531 0.36718-6.2148-1-8.9414-0.3125-0.61719-0.71094-1.0977-1.1719-1.4844-1.7148-1.4492-4.25-1.6328-6.1445-3.2305-2.2734-1.9258-3.3281-4.875-4.7969-7.4648-4.2343-7.4688-12.23-12.207-20.539-14.375-8.3086-2.1641-17.02-2.0664-25.602-1.918-9.7188 0.16406-19.82 0.46094-28.48 4.8711-0.21875 0.11328-0.43359 0.22266-0.64844 0.33984-0.99219 0.53906-1.9531 1.125-2.875 1.7695-8.3242 5.7578-13.824 15.535-14.168 25.672-0.39062 11.508 5.875 23.008 15.758 28.922" fill="#f79c9c"/>
 </g>
 <g transform="translate(-.77734 -.023438)" clip-path="url(#aa184baea6)">
  <path d="m13.887 59.457c0.80859 10.316 6.7773 20.18 15.68 25.504 10.062 6.0195 22.453 6.1523 34.18 6.0742 7.4414-0.05078 14.965-0.125 22.188-1.9219 7.2188-1.793 14.219-5.4922 18.578-11.52 0.0937-0.13281 0.1875-0.26172 0.28125-0.39453 1.9688-2.8281 3.5938-6.1367 6.6602-7.6602 1.8711-0.93359 4.1641-1.1172 5.707-2.5117 0.0273-0.02734 0.0547-0.05078 0.0859-0.07813 1.6016-1.5195 1.8438-3.9453 1.9883-6.1484 0.0117-0.14453 0.0195-0.28516 0.0273-0.42969 0.1875 1.7305 0.0859 3.5195-0.0273 5.207-0.14454 2.1992-0.38672 4.625-1.9883 6.1445-0.0312 0.02734-0.0586 0.05469-0.0859 0.08203-1.543 1.3945-3.8359 1.5781-5.707 2.5078-3.0664 1.5273-4.6914 4.8359-6.6602 7.6641-0.0937 0.12891-0.1875 0.26172-0.28125 0.39063-4.3594 6.0312-11.359 9.7305-18.578 11.523-7.2227 1.793-14.746 1.8672-22.188 1.9219-11.727 0.078125-24.117-0.058594-34.18-6.0742-9.8828-5.9141-16.148-17.414-15.758-28.922 0.01563-0.45312 0.04297-0.90625 0.07813-1.3594" fill="#f49090"/>
 </g>
 <path d="m96.312 50.766c0 1.4688 1.1914 2.6602 2.6602 2.6602 1.4688 0 2.6602-1.1914 2.6602-2.6602 0-1.4648-1.1914-2.6562-2.6602-2.6562-1.4688 0-2.6602 1.1914-2.6602 2.6562" fill="#4d4d4d"/>
 <g transform="translate(-.77734 -.023438)" clip-path="url(#bbfc7a7318)">
  <path d="m115.57 67.359v0.0039c0.19531 1.4297 0.49218 2.8984 1.3164 4.0859 0.0859 0.12109 0.17969 0.23828 0.27735 0.35547 0.0273-0.02734 0.0547-0.05469 0.0859-0.08203 1.6016-1.5195 1.8438-3.9453 1.9883-6.1445 0.19531-2.9531 0.36718-6.2148-1-8.9414-0.3125-0.61719-0.71094-1.0977-1.1719-1.4844-0.60156 1.1992-1.0078 2.5-1.1875 3.1914-0.76953 2.9297-0.71875 6.0352-0.30859 9.0156" fill="#ffbdbd"/>
 </g>
 <g>
  <g>
   <path d="m27.863 39.785c0.11719-0.91016 0.71094-1.7227 1.3438-2.4062 1.2617-1.3633 2.8555-2.5273 4.6953-2.793 3.5508-0.51562 6.2578 3.0273 4.0547 6.1484-0.77734 1.1016-1.9883 1.8398-3.2617 2.2852-1.793 0.62891-3.9297 0.67969-5.4688-0.44141-0.80078-0.57812-1.3984-1.5-1.3867-2.4844 0-0.10547 0.0078-0.20703 0.02344-0.30859" fill="#ffbdbd"/>
   <path d="m26.711 46.008c-0.29688 0.75391-0.97266 1.3164-1.7227 1.6211-0.90625 0.36719-2.1016 0.32031-2.6875-0.46484-2.5195-3.3789 6.2148-5.7656 4.4102-1.1562" fill="#ffbdbd"/>
   <path d="m51.195 31.98h0.03516c7.9922-0.3125 9.5039-0.31641 17.965-0.04687 0.5 0.01563 0.91406-0.375 0.92969-0.87109 0.01563-0.49609-0.375-0.91406-0.87109-0.92969-8.5195-0.27344-10.043-0.26953-18.094 0.04297-0.49609 0.01953-0.88281 0.44141-0.86328 0.9375 0.01953 0.48438 0.41797 0.86719 0.89844 0.86719" fill="#4d4d4d"/>
   <path d="m51.492 8.7227c0 4.8164 3.9062 8.7187 8.7266 8.7187 4.8164 0 8.7227-3.9023 8.7227-8.7187 0-4.8203-3.9062-8.7227-8.7227-8.7227-4.8203 0-8.7266 3.9023-8.7266 8.7227" fill="#ddad43"/>
   <path d="m60.219 15.617c3.8008 0 6.8984-3.0938 6.8984-6.8945 0-3.8047-3.0977-6.8984-6.8984-6.8984-3.8086 0-6.9023 3.0938-6.9023 6.8984 0 3.8008 3.0938 6.8945 6.9023 6.8945" fill="#f2c964"/>
  </g>
  <g transform="translate(-.77734 -.023438)" fill="#f49090">
   <g transform="translate(140.27 60.146)">
    <path d="m14.328-32.188c4.1562 0 7.1875 0.89062 9.0938 2.6719 1.9141 1.7812 2.875 4.2344 2.875 7.3594 0 1.418-0.21484 2.7656-0.64062 4.0469-0.42969 1.2812-1.125 2.4219-2.0938 3.4219-0.96094 1-2.2422 1.793-3.8438 2.375-1.5938 0.57422-3.5625 0.85938-5.9062 0.85938h-2.9375v11.453h-6.8281v-32.188zm-0.34375 5.5938h-3.1094v9.5469h2.25c1.2695 0 2.375-0.16406 3.3125-0.5 0.94531-0.34375 1.6758-0.875 2.1875-1.5938 0.50781-0.71875 0.76562-1.6406 0.76562-2.7656 0-1.582-0.44531-2.7578-1.3281-3.5312-0.875-0.76953-2.2344-1.1562-4.0781-1.1562z"/>
   </g>
   <g transform="translate(168.59 60.146)">
    <path d="m10.234-24.609v24.609h-6.7188v-24.609zm-3.3438-9.6562c1 0 1.8594 0.23438 2.5781 0.70312 0.71875 0.46094 1.0781 1.3203 1.0781 2.5781 0 1.25-0.35938 2.1172-1.0781 2.5938-0.71875 0.48047-1.5781 0.71875-2.5781 0.71875-1.0117 0-1.875-0.23828-2.5938-0.71875-0.71094-0.47656-1.0625-1.3438-1.0625-2.5938 0-1.2578 0.35156-2.1172 1.0625-2.5781 0.71875-0.46875 1.582-0.70312 2.5938-0.70312z"/>
   </g>
   <g transform="translate(182.35 60.146)">
    <path d="m10.719 10.828c-3.4297 0-6.0547-0.60156-7.875-1.7969-1.8125-1.1875-2.7188-2.8672-2.7188-5.0312 0-1.4805 0.46094-2.7188 1.3906-3.7188 0.92578-1 2.2852-1.707 4.0781-2.125-0.6875-0.30078-1.293-0.78516-1.8125-1.4531-0.51172-0.66406-0.76562-1.375-0.76562-2.125 0-0.9375 0.26953-1.7188 0.8125-2.3438 0.53906-0.625 1.3281-1.2344 2.3594-1.8281-1.293-0.5625-2.3203-1.457-3.0781-2.6875-0.75-1.2383-1.125-2.6914-1.125-4.3594 0-1.7891 0.39062-3.3125 1.1719-4.5625 0.78906-1.2578 1.9375-2.2188 3.4375-2.875 1.5-0.66406 3.332-1 5.5-1 0.44531 0 0.97266 0.03125 1.5781 0.09375 0.60156 0.05469 1.1562 0.11719 1.6562 0.1875 0.50781 0.07422 0.85156 0.13672 1.0312 0.1875h8.5938v3.4062l-3.8594 0.98438c0.35156 0.55469 0.61719 1.1367 0.79688 1.75 0.17578 0.61719 0.26562 1.2656 0.26562 1.9531 0 2.6484-0.92188 4.7109-2.7656 6.1875-1.8438 1.4688-4.4023 2.2031-7.6719 2.2031-0.78125-0.039062-1.5156-0.097656-2.2031-0.17188-0.34375 0.26172-0.60547 0.53906-0.78125 0.82812-0.16797 0.29297-0.25 0.60156-0.25 0.92188 0 0.32422 0.13281 0.59375 0.40625 0.8125 0.26953 0.21094 0.67578 0.37109 1.2188 0.48438 0.55078 0.10547 1.2383 0.15625 2.0625 0.15625h4.1875c2.6953 0 4.7539 0.58594 6.1719 1.75 1.4141 1.1562 2.125 2.8594 2.125 5.1094 0 2.875-1.2031 5.1016-3.6094 6.6875-2.3984 1.582-5.8398 2.375-10.328 2.375zm0.29688-4.375c1.5938 0 2.9609-0.15234 4.1094-0.45312 1.1562-0.30469 2.0391-0.73047 2.6562-1.2812 0.625-0.55469 0.9375-1.2109 0.9375-1.9688 0-0.61719-0.18359-1.1055-0.54688-1.4688-0.35547-0.35547-0.89844-0.60547-1.625-0.75-0.73047-0.14844-1.6562-0.21875-2.7812-0.21875h-3.4844c-0.82422 0-1.5625 0.12891-2.2188 0.39062-0.64844 0.25781-1.1641 0.62891-1.5469 1.1094-0.38672 0.47656-0.57812 1.0352-0.57812 1.6719 0 0.91406 0.44141 1.6406 1.3281 2.1719 0.89453 0.53125 2.1445 0.79688 3.75 0.79688zm1.0781-18.672c1.2578 0 2.1797-0.38281 2.7656-1.1562 0.59375-0.78125 0.89062-1.8438 0.89062-3.1875 0-1.4766-0.30859-2.5859-0.92188-3.3281-0.60547-0.73828-1.5156-1.1094-2.7344-1.1094-1.2422 0-2.168 0.37109-2.7812 1.1094-0.61719 0.74219-0.92188 1.8516-0.92188 3.3281 0 1.3438 0.30078 2.4062 0.90625 3.1875 0.61328 0.77344 1.5469 1.1562 2.7969 1.1562z"/>
   </g>
   <g transform="translate(207.82 60.146)">
    <path d="m10.719 10.828c-3.4297 0-6.0547-0.60156-7.875-1.7969-1.8125-1.1875-2.7188-2.8672-2.7188-5.0312 0-1.4805 0.46094-2.7188 1.3906-3.7188 0.92578-1 2.2852-1.707 4.0781-2.125-0.6875-0.30078-1.293-0.78516-1.8125-1.4531-0.51172-0.66406-0.76562-1.375-0.76562-2.125 0-0.9375 0.26953-1.7188 0.8125-2.3438 0.53906-0.625 1.3281-1.2344 2.3594-1.8281-1.293-0.5625-2.3203-1.457-3.0781-2.6875-0.75-1.2383-1.125-2.6914-1.125-4.3594 0-1.7891 0.39062-3.3125 1.1719-4.5625 0.78906-1.2578 1.9375-2.2188 3.4375-2.875 1.5-0.66406 3.332-1 5.5-1 0.44531 0 0.97266 0.03125 1.5781 0.09375 0.60156 0.05469 1.1562 0.11719 1.6562 0.1875 0.50781 0.07422 0.85156 0.13672 1.0312 0.1875h8.5938v3.4062l-3.8594 0.98438c0.35156 0.55469 0.61719 1.1367 0.79688 1.75 0.17578 0.61719 0.26562 1.2656 0.26562 1.9531 0 2.6484-0.92188 4.7109-2.7656 6.1875-1.8438 1.4688-4.4023 2.2031-7.6719 2.2031-0.78125-0.039062-1.5156-0.097656-2.2031-0.17188-0.34375 0.26172-0.60547 0.53906-0.78125 0.82812-0.16797 0.29297-0.25 0.60156-0.25 0.92188 0 0.32422 0.13281 0.59375 0.40625 0.8125 0.26953 0.21094 0.67578 0.37109 1.2188 0.48438 0.55078 0.10547 1.2383 0.15625 2.0625 0.15625h4.1875c2.6953 0 4.7539 0.58594 6.1719 1.75 1.4141 1.1562 2.125 2.8594 2.125 5.1094 0 2.875-1.2031 5.1016-3.6094 6.6875-2.3984 1.582-5.8398 2.375-10.328 2.375zm0.29688-4.375c1.5938 0 2.9609-0.15234 4.1094-0.45312 1.1562-0.30469 2.0391-0.73047 2.6562-1.2812 0.625-0.55469 0.9375-1.2109 0.9375-1.9688 0-0.61719-0.18359-1.1055-0.54688-1.4688-0.35547-0.35547-0.89844-0.60547-1.625-0.75-0.73047-0.14844-1.6562-0.21875-2.7812-0.21875h-3.4844c-0.82422 0-1.5625 0.12891-2.2188 0.39062-0.64844 0.25781-1.1641 0.62891-1.5469 1.1094-0.38672 0.47656-0.57812 1.0352-0.57812 1.6719 0 0.91406 0.44141 1.6406 1.3281 2.1719 0.89453 0.53125 2.1445 0.79688 3.75 0.79688zm1.0781-18.672c1.2578 0 2.1797-0.38281 2.7656-1.1562 0.59375-0.78125 0.89062-1.8438 0.89062-3.1875 0-1.4766-0.30859-2.5859-0.92188-3.3281-0.60547-0.73828-1.5156-1.1094-2.7344-1.1094-1.2422 0-2.168 0.37109-2.7812 1.1094-0.61719 0.74219-0.92188 1.8516-0.92188 3.3281 0 1.3438 0.30078 2.4062 0.90625 3.1875 0.61328 0.77344 1.5469 1.1562 2.7969 1.1562z"/>
   </g>
   <g transform="translate(233.3 60.146)">
    <path d="m0-24.609h7.3594l4.6406 13.844c0.14453 0.4375 0.26953 0.88672 0.375 1.3438 0.10156 0.46094 0.19141 0.93359 0.26562 1.4219 0.07031 0.48047 0.12891 0.98047 0.17188 1.5h0.14062c0.08203-0.78906 0.20312-1.5312 0.35938-2.2188s0.34766-1.3672 0.57812-2.0469l4.5625-13.844h7.2031l-10.422 27.766c-0.625 1.6953-1.4492 3.1133-2.4688 4.25-1.0117 1.1328-2.1719 1.9883-3.4844 2.5625-1.3125 0.57031-2.7578 0.85938-4.3281 0.85938-0.76172 0-1.4219-0.04297-1.9844-0.125-0.55469-0.07422-1.0273-0.15625-1.4219-0.25v-5.3281c0.30078 0.070312 0.6875 0.14062 1.1562 0.20312s0.96094 0.09375 1.4844 0.09375c0.9375 0 1.7422-0.19922 2.4219-0.59375 0.67578-0.39844 1.2383-0.93359 1.6875-1.6094 0.45703-0.66797 0.81641-1.3984 1.0781-2.1875l0.40625-1.2031z"/>
   </g>
   <g transform="translate(258.95 60.146)">
    <path d="m10.234-34.266v7.9688c0 0.92969-0.02734 1.8516-0.07813 2.7656-0.05469 0.90625-0.11719 1.6094-0.1875 2.1094h0.26562c0.64454-1.0078 1.5234-1.8672 2.6406-2.5781 1.1133-0.71875 2.5625-1.0781 4.3438-1.0781 2.7578 0 5 1.0781 6.7188 3.2344s2.5781 5.3203 2.5781 9.4844c0 2.8125-0.40234 5.1719-1.2031 7.0781-0.79297 1.8984-1.9023 3.3242-3.3281 4.2812-1.418 0.96094-3.0625 1.4375-4.9375 1.4375-1.8125 0-3.2422-0.32422-4.2812-0.96875-1.043-0.64453-1.8867-1.3672-2.5312-2.1719h-0.45312l-1.125 2.7031h-5.1406v-34.266zm4.8281 14.562c-1.1797 0-2.1094 0.24609-2.7969 0.73438-0.6875 0.48047-1.1953 1.2031-1.5156 2.1719-0.3125 0.96875-0.48438 2.1953-0.51562 3.6719v0.73438c0 2.3867 0.35156 4.2148 1.0625 5.4844 0.70703 1.2734 1.9922 1.9062 3.8594 1.9062 1.375 0 2.4688-0.63281 3.2812-1.9062 0.8125-1.2812 1.2188-3.125 1.2188-5.5312s-0.41406-4.2188-1.2344-5.4375c-0.8125-1.2188-1.9336-1.8281-3.3594-1.8281z"/>
   </g>
   <g transform="translate(287.49 60.146)">
    <path d="m13.609-25.125c3.3008 0 5.832 0.71875 7.5938 2.1562 1.7578 1.4375 2.6406 3.625 2.6406 6.5625v16.406h-4.6875l-1.2969-3.3438h-0.17188c-0.71094 0.875-1.4336 1.5938-2.1719 2.1562-0.73047 0.55469-1.5742 0.96094-2.5312 1.2188-0.94922 0.26953-2.1055 0.40625-3.4688 0.40625-1.4609 0-2.7656-0.27734-3.9219-0.82812-1.1484-0.5625-2.0547-1.4141-2.7188-2.5625-0.65625-1.1562-0.98438-2.625-0.98438-4.4062 0-2.6133 0.91406-4.5391 2.75-5.7812 1.832-1.2383 4.5859-1.9219 8.2656-2.0469l4.2656-0.14062v-1.0781c0-1.2891-0.33984-2.2344-1.0156-2.8281-0.66797-0.60156-1.6055-0.90625-2.8125-0.90625-1.1875 0-2.3555 0.16797-3.5 0.5-1.1484 0.33594-2.293 0.76172-3.4375 1.2812l-2.2188-4.5469c1.3008-0.6875 2.7656-1.2266 4.3906-1.625 1.625-0.39453 3.3008-0.59375 5.0312-0.59375zm3.5625 13.719-2.5938 0.09375c-2.1797 0.05469-3.6875 0.4375-4.5312 1.1562s-1.2656 1.668-1.2656 2.8438c0 1.0312 0.30078 1.7656 0.90625 2.2031 0.60156 0.42969 1.3906 0.64062 2.3594 0.64062 1.4375 0 2.6484-0.42578 3.6406-1.2812 0.98828-0.85156 1.4844-2.0625 1.4844-3.625z"/>
   </g>
   <g transform="translate(314.73 60.146)">
    <path d="m17.5-25.078c2.6328 0 4.75 0.71875 6.3438 2.1562 1.6016 1.4297 2.4062 3.7188 2.4062 6.875v16.047h-6.7188v-14.375c0-1.7578-0.32422-3.0859-0.96875-3.9844-0.63672-0.89453-1.6367-1.3438-3-1.3438-2.0547 0-3.4531 0.69922-4.2031 2.0938-0.75 1.3984-1.125 3.4062-1.125 6.0312v11.578h-6.7188v-24.609h5.1406l0.90625 3.1406h0.375c0.51953-0.85156 1.1719-1.5391 1.9531-2.0625 0.78906-0.53125 1.6641-0.92188 2.625-1.1719 0.96875-0.25 1.9609-0.375 2.9844-0.375z"/>
   </g>
   <g transform="translate(344.36 60.146)">
    <path d="m10.234-34.266v15.328c0 0.92969-0.03906 1.8555-0.10938 2.7812-0.07422 0.91797-0.15234 1.8398-0.23438 2.7656h0.078125c0.45703-0.64453 0.92578-1.2812 1.4062-1.9062 0.47656-0.63281 0.98828-1.2422 1.5312-1.8281l6.8906-7.4844h7.5781l-9.7812 10.672 10.375 13.938h-7.75l-7.0938-9.9688-2.8906 2.3125v7.6562h-6.7188v-34.266z"/>
   </g>
  </g>
  <g transform="translate(-.77734 -.023438)" fill="#4d4d4d">
   <g transform="translate(154.74 96.981)">
    <path d="m9.4844-5.1719c0 1.6797-0.45312 2.9609-1.3594 3.8438-0.90625 0.88672-2.2148 1.3281-3.9219 1.3281h-2.8125v-10.141h3.1094c1.5703 0 2.7969 0.4375 3.6719 1.3125s1.3125 2.0938 1.3125 3.6562zm-1.25 0.046875c0-1.3203-0.33594-2.3164-1-2.9844-0.65625-0.67578-1.6406-1.0156-2.9531-1.0156h-1.7031v8.1094h1.4375c1.3945 0 2.4453-0.34375 3.1562-1.0312 0.70703-0.69531 1.0625-1.7227 1.0625-3.0781z"/>
   </g>
   <g transform="translate(165.37 96.981)">
    <path d="m10.188-5.0781c0 1.6172-0.41406 2.8906-1.2344 3.8281-0.8125 0.92969-1.9492 1.3906-3.4062 1.3906-1.5 0-2.6562-0.45312-3.4688-1.3594-0.8125-0.91406-1.2188-2.207-1.2188-3.875 0-1.6562 0.40625-2.9375 1.2188-3.8438 0.82031-0.90625 1.9844-1.3594 3.4844-1.3594 1.4453 0 2.5781 0.46484 3.3906 1.3906 0.82031 0.91797 1.2344 2.1953 1.2344 3.8281zm-8.0781 0c0 1.3672 0.28906 2.4062 0.875 3.125 0.59375 0.71094 1.4453 1.0625 2.5625 1.0625 1.1133 0 1.957-0.35156 2.5312-1.0625 0.58203-0.70703 0.875-1.75 0.875-3.125 0-1.3633-0.28906-2.3984-0.85938-3.1094-0.57422-0.70703-1.418-1.0625-2.5312-1.0625-1.125 0-1.9844 0.35938-2.5781 1.0781-0.58594 0.71094-0.875 1.7422-0.875 3.0938z"/>
   </g>
   <g transform="translate(176.71 96.981)">
    <path d="m5.875 0-3.4375-8.9844h-0.046875c0.0625 0.71094 0.09375 1.5547 0.09375 2.5312v6.4531h-1.0938v-10.141h1.7812l3.2031 8.3594h0.0625l3.2344-8.3594h1.7656v10.141h-1.1875v-6.5312c0-0.75 0.03516-1.5625 0.10938-2.4375h-0.0625l-3.4688 8.9688z"/>
   </g>
   <g transform="translate(189.81 96.981)">
    <path d="m7.7656 0-1.2656-3.2188h-4.0625l-1.25 3.2188h-1.1875l4.0156-10.188h0.98438l3.9844 10.188zm-1.625-4.2812-1.1875-3.1406c-0.14844-0.40625-0.30469-0.89453-0.46875-1.4688-0.10547 0.44922-0.25 0.9375-0.4375 1.4688l-1.1875 3.1406z"/>
   </g>
   <g transform="translate(199.08 96.981)">
    <path d="m1.3906 0v-10.141h1.1875v10.141z"/>
   </g>
   <g transform="translate(203.32 96.981)">
    <path d="m9.3125 0h-1.3438l-5.5469-8.5156h-0.046875c0.070312 1 0.10938 1.918 0.10938 2.75v5.7656h-1.0938v-10.141h1.3281l5.5312 8.4688h0.0625c-0.011719-0.125-0.03125-0.52344-0.0625-1.2031-0.03125-0.67578-0.042969-1.1602-0.03125-1.4531v-5.8125h1.0938z"/>
   </g>
   <g transform="translate(214.31 96.981)"></g>
   <g transform="translate(218.28 96.981)">
    <path d="m5.7344-9.2344c-1.1172 0-1.9961 0.375-2.6406 1.125-0.64844 0.74219-0.96875 1.7578-0.96875 3.0469 0 1.3242 0.3125 2.3516 0.9375 3.0781 0.625 0.71875 1.5078 1.0781 2.6562 1.0781 0.70703 0 1.5156-0.12891 2.4219-0.39062v1.0469c-0.69922 0.25781-1.5625 0.39062-2.5938 0.39062-1.5 0-2.6562-0.45312-3.4688-1.3594s-1.2188-2.1914-1.2188-3.8594c0-1.0508 0.19141-1.9688 0.57812-2.75 0.39453-0.78906 0.96094-1.3945 1.7031-1.8125 0.73828-0.42578 1.6094-0.64062 2.6094-0.64062 1.0625 0 1.9883 0.19531 2.7812 0.57812l-0.5 1.0156c-0.76172-0.36328-1.5273-0.54688-2.2969-0.54688z"/>
   </g>
   <g transform="translate(227.52 96.981)">
    <path d="m10.188-5.0781c0 1.6172-0.41406 2.8906-1.2344 3.8281-0.8125 0.92969-1.9492 1.3906-3.4062 1.3906-1.5 0-2.6562-0.45312-3.4688-1.3594-0.8125-0.91406-1.2188-2.207-1.2188-3.875 0-1.6562 0.40625-2.9375 1.2188-3.8438 0.82031-0.90625 1.9844-1.3594 3.4844-1.3594 1.4453 0 2.5781 0.46484 3.3906 1.3906 0.82031 0.91797 1.2344 2.1953 1.2344 3.8281zm-8.0781 0c0 1.3672 0.28906 2.4062 0.875 3.125 0.59375 0.71094 1.4453 1.0625 2.5625 1.0625 1.1133 0 1.957-0.35156 2.5312-1.0625 0.58203-0.70703 0.875-1.75 0.875-3.125 0-1.3633-0.28906-2.3984-0.85938-3.1094-0.57422-0.70703-1.418-1.0625-2.5312-1.0625-1.125 0-1.9844 0.35938-2.5781 1.0781-0.58594 0.71094-0.875 1.7422-0.875 3.0938z"/>
   </g>
   <g transform="translate(238.86 96.981)">
    <path d="m7.1094-2.7031c0 0.89844-0.32422 1.5938-0.96875 2.0938-0.64844 0.5-1.5234 0.75-2.625 0.75-1.2109 0-2.1367-0.15625-2.7812-0.46875v-1.1406c0.41406 0.17969 0.86719 0.32031 1.3594 0.42188 0.48828 0.10547 0.97266 0.15625 1.4531 0.15625 0.78906 0 1.3828-0.14844 1.7812-0.45312 0.39453-0.30078 0.59375-0.71875 0.59375-1.25 0-0.34375-0.074219-0.625-0.21875-0.84375-0.13672-0.22656-0.37109-0.4375-0.70312-0.625-0.32422-0.19531-0.82422-0.41406-1.5-0.65625-0.94922-0.33203-1.625-0.72656-2.0312-1.1875-0.40625-0.46875-0.60938-1.0703-0.60938-1.8125 0-0.78125 0.28906-1.3984 0.875-1.8594 0.59375-0.46875 1.375-0.70312 2.3438-0.70312 1.0078 0 1.9375 0.18359 2.7812 0.54688l-0.375 1.0312c-0.83594-0.35156-1.6484-0.53125-2.4375-0.53125-0.625 0-1.1172 0.13672-1.4688 0.40625-0.34375 0.27344-0.51562 0.64062-0.51562 1.1094 0 0.35547 0.0625 0.64844 0.1875 0.875 0.13281 0.21875 0.35156 0.42188 0.65625 0.60938 0.3125 0.1875 0.78516 0.39844 1.4219 0.625 1.0625 0.375 1.7891 0.78125 2.1875 1.2188 0.39453 0.4375 0.59375 1 0.59375 1.6875z"/>
   </g>
   <g transform="translate(246.94 96.981)">
    <path d="m4.5156 0h-1.1875v-9.0938h-3.2031v-1.0469h7.5938v1.0469h-3.2031z"/>
   </g>
   <g transform="translate(255.07 96.981)">
    <path d="m7.1094-2.7031c0 0.89844-0.32422 1.5938-0.96875 2.0938-0.64844 0.5-1.5234 0.75-2.625 0.75-1.2109 0-2.1367-0.15625-2.7812-0.46875v-1.1406c0.41406 0.17969 0.86719 0.32031 1.3594 0.42188 0.48828 0.10547 0.97266 0.15625 1.4531 0.15625 0.78906 0 1.3828-0.14844 1.7812-0.45312 0.39453-0.30078 0.59375-0.71875 0.59375-1.25 0-0.34375-0.074219-0.625-0.21875-0.84375-0.13672-0.22656-0.37109-0.4375-0.70312-0.625-0.32422-0.19531-0.82422-0.41406-1.5-0.65625-0.94922-0.33203-1.625-0.72656-2.0312-1.1875-0.40625-0.46875-0.60938-1.0703-0.60938-1.8125 0-0.78125 0.28906-1.3984 0.875-1.8594 0.59375-0.46875 1.375-0.70312 2.3438-0.70312 1.0078 0 1.9375 0.18359 2.7812 0.54688l-0.375 1.0312c-0.83594-0.35156-1.6484-0.53125-2.4375-0.53125-0.625 0-1.1172 0.13672-1.4688 0.40625-0.34375 0.27344-0.51562 0.64062-0.51562 1.1094 0 0.35547 0.0625 0.64844 0.1875 0.875 0.13281 0.21875 0.35156 0.42188 0.65625 0.60938 0.3125 0.1875 0.78516 0.39844 1.4219 0.625 1.0625 0.375 1.7891 0.78125 2.1875 1.2188 0.39453 0.4375 0.59375 1 0.59375 1.6875z"/>
   </g>
   <g transform="translate(263.15 96.981)"></g>
   <g transform="translate(267.12 96.981)">
    <path d="m5.7344-9.2344c-1.1172 0-1.9961 0.375-2.6406 1.125-0.64844 0.74219-0.96875 1.7578-0.96875 3.0469 0 1.3242 0.3125 2.3516 0.9375 3.0781 0.625 0.71875 1.5078 1.0781 2.6562 1.0781 0.70703 0 1.5156-0.12891 2.4219-0.39062v1.0469c-0.69922 0.25781-1.5625 0.39062-2.5938 0.39062-1.5 0-2.6562-0.45312-3.4688-1.3594s-1.2188-2.1914-1.2188-3.8594c0-1.0508 0.19141-1.9688 0.57812-2.75 0.39453-0.78906 0.96094-1.3945 1.7031-1.8125 0.73828-0.42578 1.6094-0.64062 2.6094-0.64062 1.0625 0 1.9883 0.19531 2.7812 0.57812l-0.5 1.0156c-0.76172-0.36328-1.5273-0.54688-2.2969-0.54688z"/>
   </g>
   <g transform="translate(276.36 96.981)">
    <path d="m7.7656 0-1.2656-3.2188h-4.0625l-1.25 3.2188h-1.1875l4.0156-10.188h0.98438l3.9844 10.188zm-1.625-4.2812-1.1875-3.1406c-0.14844-0.40625-0.30469-0.89453-0.46875-1.4688-0.10547 0.44922-0.25 0.9375-0.4375 1.4688l-1.1875 3.1406z"/>
   </g>
   <g transform="translate(285.63 96.981)">
    <path d="m1.3906 0v-10.141h1.1875v9.0781h4.4688v1.0625z"/>
   </g>
   <g transform="translate(293.28 96.981)">
    <path d="m5.7344-9.2344c-1.1172 0-1.9961 0.375-2.6406 1.125-0.64844 0.74219-0.96875 1.7578-0.96875 3.0469 0 1.3242 0.3125 2.3516 0.9375 3.0781 0.625 0.71875 1.5078 1.0781 2.6562 1.0781 0.70703 0 1.5156-0.12891 2.4219-0.39062v1.0469c-0.69922 0.25781-1.5625 0.39062-2.5938 0.39062-1.5 0-2.6562-0.45312-3.4688-1.3594s-1.2188-2.1914-1.2188-3.8594c0-1.0508 0.19141-1.9688 0.57812-2.75 0.39453-0.78906 0.96094-1.3945 1.7031-1.8125 0.73828-0.42578 1.6094-0.64062 2.6094-0.64062 1.0625 0 1.9883 0.19531 2.7812 0.57812l-0.5 1.0156c-0.76172-0.36328-1.5273-0.54688-2.2969-0.54688z"/>
   </g>
   <g transform="translate(302.52 96.981)">
    <path d="m9.0469-10.141v6.5625c0 1.1562-0.35156 2.0703-1.0469 2.7344-0.69922 0.65625-1.6562 0.98438-2.875 0.98438s-2.1641-0.33203-2.8281-1c-0.66797-0.66406-1-1.582-1-2.75v-6.5312h1.1719v6.625c0 0.84375 0.22656 1.4961 0.6875 1.9531 0.46875 0.44922 1.1484 0.67188 2.0469 0.67188 0.85156 0 1.5078-0.22656 1.9688-0.6875 0.46875-0.45703 0.70312-1.1094 0.70312-1.9531v-6.6094z"/>
   </g>
   <g transform="translate(313.14 96.981)">
    <path d="m1.3906 0v-10.141h1.1875v9.0781h4.4688v1.0625z"/>
   </g>
   <g transform="translate(320.79 96.981)">
    <path d="m7.7656 0-1.2656-3.2188h-4.0625l-1.25 3.2188h-1.1875l4.0156-10.188h0.98438l3.9844 10.188zm-1.625-4.2812-1.1875-3.1406c-0.14844-0.40625-0.30469-0.89453-0.46875-1.4688-0.10547 0.44922-0.25 0.9375-0.4375 1.4688l-1.1875 3.1406z"/>
   </g>
   <g transform="translate(330.06 96.981)">
    <path d="m4.5156 0h-1.1875v-9.0938h-3.2031v-1.0469h7.5938v1.0469h-3.2031z"/>
   </g>
   <g transform="translate(338.2 96.981)">
    <path d="m10.188-5.0781c0 1.6172-0.41406 2.8906-1.2344 3.8281-0.8125 0.92969-1.9492 1.3906-3.4062 1.3906-1.5 0-2.6562-0.45312-3.4688-1.3594-0.8125-0.91406-1.2188-2.207-1.2188-3.875 0-1.6562 0.40625-2.9375 1.2188-3.8438 0.82031-0.90625 1.9844-1.3594 3.4844-1.3594 1.4453 0 2.5781 0.46484 3.3906 1.3906 0.82031 0.91797 1.2344 2.1953 1.2344 3.8281zm-8.0781 0c0 1.3672 0.28906 2.4062 0.875 3.125 0.59375 0.71094 1.4453 1.0625 2.5625 1.0625 1.1133 0 1.957-0.35156 2.5312-1.0625 0.58203-0.70703 0.875-1.75 0.875-3.125 0-1.3633-0.28906-2.3984-0.85938-3.1094-0.57422-0.70703-1.418-1.0625-2.5312-1.0625-1.125 0-1.9844 0.35938-2.5781 1.0781-0.58594 0.71094-0.875 1.7422-0.875 3.0938z"/>
   </g>
   <g transform="translate(349.54 96.981)">
    <path d="m2.5781-4.2188v4.2188h-1.1875v-10.141h2.7812c1.25 0 2.1719 0.24219 2.7656 0.71875 0.59375 0.48047 0.89062 1.1953 0.89062 2.1406 0 1.3438-0.68359 2.25-2.0469 2.7188l2.75 4.5625h-1.3906l-2.4531-4.2188zm0-1.0156h1.6094c0.83203 0 1.4414-0.16016 1.8281-0.48438 0.39453-0.33203 0.59375-0.83203 0.59375-1.5 0-0.66406-0.19922-1.1445-0.59375-1.4375-0.39844-0.30078-1.0312-0.45312-1.9062-0.45312h-1.5312z"/>
   </g>
  </g>
 </g>
</svg>
